<svg width="75" height="26.471" viewBox="0 0 75 26.471" fill="none" xmlns="http://www.w3.org/2000/svg"><path d="M5.411 24.816q0.551 -0.759 1.206 -1.138 0.688 -0.379 1.379 -0.619 0.724 -0.242 1.413 -0.448a5.029 5.029 0 0 0 1.414 -0.759q0.379 -0.206 1.068 -0.62 0.69 -0.413 1.345 -0.896 0.688 -0.516 1.172 -1 0.516 -0.483 0.517 -0.827 0 -0.035 -0.034 -0.035 -0.069 0 -0.069 -0.034l-0.069 -0.069a5.294 5.294 0 0 0 -0.551 -0.172 3.529 3.529 0 0 1 -0.448 -0.138q-4.447 -0.517 -7.169 -0.896 -2.689 -0.414 -4.171 -0.861 -1.447 -0.449 -1.93 -1.034Q0 14.682 0 13.787q0 -0.344 0.138 -0.759 0.138 -0.413 0.311 -0.827 0.206 -0.413 0.414 -0.759 0.206 -0.344 0.379 -0.551 0.551 -0.69 1.447 -1.241a12.618 12.618 0 0 1 1.93 -0.965 24.706 24.706 0 0 1 2.068 -0.724q1.069 -0.311 1.931 -0.552a6.529 6.529 0 0 0 1.93 -0.447 8.118 8.118 0 0 1 1.965 -0.551q0.483 0 0.792 0.379 0.311 0.379 0.311 0.792 0 0.586 -0.242 0.896a1.5 1.5 0 0 1 -0.586 0.448q-0.344 0.138 -0.792 0.242 -0.448 0.069 -0.896 0.172 -0.275 0.069 -0.759 0.206 -0.482 0.103 -0.964 0.242 -0.483 0.138 -0.862 0.241t-0.447 0.138q-1.069 0.449 -2.034 0.862 -0.93 0.379 -1.654 0.792 -0.689 0.415 -1.103 0.896a1.368 1.368 0 0 0 -0.344 1v0.034q0.344 0.483 1.55 0.724 1.207 0.242 2.826 0.414 1.654 0.172 3.446 0.344 1.826 0.172 3.344 0.518 1.516 0.344 2.516 0.93 1 0.587 1.034 1.586 0 0.379 -0.172 0.896 -0.137 0.517 -0.415 0.792a22.059 22.059 0 0 1 -2.067 1.999 22.059 22.059 0 0 1 -2.55 1.93 19.853 19.853 0 0 1 -2.861 1.482q-1.447 0.586 -2.861 0.689 -0.482 0 -0.896 -0.344 -0.415 -0.379 -0.415 -0.896m17.061 -8.824q-0.483 0 -0.862 0.241a1.632 1.632 0 0 1 -0.896 0.242h-0.379a4.412 4.412 0 0 0 -0.344 -0.035 1.147 1.147 0 0 0 -0.311 -0.275l-0.344 -0.206a1.941 1.941 0 0 1 -0.311 -0.311q-0.104 -0.172 -0.104 -0.483 0 -0.516 0.415 -0.827 0.413 -0.344 0.964 -0.586 0.551 -0.242 1.103 -0.448 0.586 -0.206 0.931 -0.483v-1.517q0 -2.55 -0.242 -5.1a54.706 54.706 0 0 1 -0.241 -5.102q0 -0.689 0.344 -0.896T23.127 0q0.688 0 1 0.414 0.344 0.378 0.483 0.965 0.138 0.551 0.138 1.206 0 0.619 0.034 1.068 0 0.449 0.069 1.586 0.069 1.136 0.138 2.412t0.139 2.412q0.068 1.138 0.103 1.586 0.139 -0.034 0.517 -0.172 0.414 -0.172 0.861 -0.311 0.448 -0.172 0.828 -0.31 0.413 -0.138 0.586 -0.207 0.896 -0.379 1.862 -0.827a4.324 4.324 0 0 1 1.964 -0.483q0.688 0 1.034 0.483 0.379 0.448 0.379 1.068 0 0.45 -0.345 0.656 -0.344 0.207 -0.724 0.379l-6.274 2.344 -0.206 0.138a0.529 0.529 0 0 0 -0.207 0.138v1.103q0 1.206 0.035 2.516 0.067 1.275 0.241 2.481 0.172 1.035 0.379 2.034t0.206 2.034q0 0.311 -0.207 0.827t-0.655 0.517q-0.931 0 -1.516 -0.551 -0.586 -0.551 -0.656 -1.482 -0.172 -1.791 -0.379 -3.929 -0.172 -2.137 -0.344 -4.101zm19.922 0.448q-0.311 0.551 -0.724 1.344l-0.828 1.654a28.235 28.235 0 0 1 -1 1.758q-0.516 0.862 -1.103 1.586a7.588 7.588 0 0 1 -1.172 1.241q-0.62 0.482 -1.275 0.586 -0.276 0 -0.62 -0.035a7.941 7.941 0 0 1 -0.69 -0.172 2.118 2.118 0 0 1 -0.586 -0.344q-0.206 -0.242 -0.206 -0.62 0.034 -3.516 0.517 -6.377 0.482 -2.896 1.517 -5.066 1.033 -2.206 2.654 -3.653 1.619 -1.449 3.929 -2.069h0.241q0.206 -0.034 0.276 -0.034 1.032 -0.034 1.482 0.965 0.482 0.965 0.688 3.102 0.242 2.103 0.311 5.446 0.103 3.309 0.379 7.961 0.103 0.379 0.103 0.655 0.034 0.276 0.034 0.655 0 0.517 -0.311 0.793 -0.309 0.241 -0.792 0.241 -1 0 -1.414 -0.551 -0.413 -0.551 -0.551 -1.482 0 -0.034 -0.069 -0.551 -0.034 -0.518 -0.138 -1.173l-0.138 -1.378q-0.069 -0.688 -0.103 -1.138v-0.137a7.059 7.059 0 0 1 -0.104 -0.862q0 -0.516 -0.069 -1a20.294 20.294 0 0 1 -0.103 -1.172zm-0.759 -6.825q-0.931 0.689 -1.826 1.862 -0.896 1.172 -1.275 2.275 -0.173 0.516 -0.379 1.413t-0.379 1.793a70.588 70.588 0 0 0 -0.241 1.62q-0.103 0.724 -0.103 0.93 0.034 0 0.069 -0.069l0.103 -0.103q2.137 -2.067 2.999 -4.446 0.896 -2.412 1.034 -5.274M53.321 24.747v-0.311a0.618 0.618 0 0 1 0.172 -0.275q0.414 -0.516 0.931 -1.069l1 -1.138q0.482 -0.586 0.896 -1.205 0.415 -0.621 0.689 -1.241v-0.206l-4.515 0.931h-0.517q-0.482 0 -1.206 -0.069a7.324 7.324 0 0 1 -1.378 -0.276 3.706 3.706 0 0 1 -1.138 -0.655q-0.447 -0.415 -0.447 -1.103 0.034 -0.794 0.827 -1.758a15.882 15.882 0 0 1 1.862 -1.896 35.294 35.294 0 0 1 2.136 -1.723q1.103 -0.793 1.759 -1.241 0.724 -0.415 1.723 -0.655 1 -0.276 1.826 -0.276 0.689 0 1.206 0.276 0.516 0.241 0.517 1 0 0.309 -0.069 0.586 -0.034 0.275 -0.414 0.379a5.559 5.559 0 0 0 -2.067 0.172q-0.966 0.241 -1.826 0.758 -0.863 0.517 -1.621 1.241a29.118 29.118 0 0 0 -1.482 1.447q-0.206 0.243 -0.516 0.69 -0.311 0.415 -0.311 0.483V17.647q0.896 0 1.758 -0.172 0.896 -0.172 1.758 -0.344 0.897 -0.207 1.759 -0.379 0.896 -0.172 1.826 -0.173 0.344 0 0.759 0.069 0.413 0.034 0.758 0.207 0.379 0.172 0.586 0.482 0.241 0.276 0.241 0.724 0 0.655 -0.344 1.276 -0.311 0.587 -0.965 1.447a55.588 55.588 0 0 1 -1.62 2.034 68.824 68.824 0 0 0 -2.309 3.102q-0.07 0.103 -0.344 0.138a3 3 0 0 1 -0.415 0.035q-0.483 0 -0.999 -0.415 -0.483 -0.413 -0.483 -0.93M62.832 9.203a27.706 27.706 0 0 0 -0.171 -4.136 35.294 35.294 0 0 1 -0.242 -4.101q0 -0.656 0.379 -0.793 0.379 -0.172 0.861 -0.172 0.689 0 1.138 0.379 0.447 0.379 0.516 1.068 0.311 3.759 0.345 7.445 0.07 3.653 0.517 7.411 1.033 -1.966 2.137 -3.24 1.103 -1.276 2.103 -1.689 1.032 -0.415 1.862 0.172 0.86 0.551 1.378 2.24 0.516 1.654 0.62 4.549 0.103 2.861 -0.344 7.135a6.176 6.176 0 0 0 -0.587 0.035q-0.344 0 -0.689 -0.035a1.941 1.941 0 0 1 -0.551 -0.138 0.441 0.441 0 0 1 -0.276 -0.379q0.276 -2.584 0.311 -4.343t-0.103 -2.894q-0.139 -1.138 -0.379 -1.724 -0.241 -0.62 -0.517 -0.896 -0.275 -0.275 -0.551 -0.275a1.059 1.059 0 0 0 -0.379 0q-0.759 0.275 -1.447 1.344 -0.656 1.069 -1.138 2.482a17.294 17.294 0 0 0 -0.724 2.998q-0.206 1.551 -0.103 2.792l-0.069 0.551a1.941 1.941 0 0 1 -0.138 0.517 0.829 0.829 0 0 1 -0.276 0.414q-0.172 0.138 -0.551 0.138 -0.724 0 -1.172 -0.241a2.082 2.082 0 0 1 -0.655 -0.689 3 3 0 0 1 -0.276 -0.965 6.176 6.176 0 0 1 0.035 -1.138z" fill="black"/></svg>